<mxfile host="app.diagrams.net" modified="2021-03-01T17:58:43.040Z" agent="5.0 (Macintosh; Intel Mac OS X 10_15_6) AppleWebKit/537.36 (KHTML, like Gecko) Chrome/88.0.4324.192 Safari/537.36" etag="P11mLt_3pajY_16D3qPS" version="14.4.3" type="github">
  <diagram id="hSgCG_ghAVO17xmwhqie" name="Page-1">
    <mxGraphModel dx="1144" dy="622" grid="1" gridSize="10" guides="1" tooltips="1" connect="1" arrows="1" fold="1" page="1" pageScale="1" pageWidth="850" pageHeight="1100" math="0" shadow="0">
      <root>
        <mxCell id="0" />
        <mxCell id="1" parent="0" />
        <mxCell id="NNHK_izrKWyzVm5b71PJ-1" value="" style="html=1;verticalLabelPosition=bottom;align=center;labelBackgroundColor=#ffffff;verticalAlign=top;strokeWidth=2;strokeColor=#0080F0;shadow=0;dashed=0;shape=mxgraph.ios7.icons.smartphone;" vertex="1" parent="1">
          <mxGeometry x="40" y="200" width="18" height="30" as="geometry" />
        </mxCell>
        <mxCell id="NNHK_izrKWyzVm5b71PJ-3" value="" style="html=1;verticalLabelPosition=bottom;align=center;labelBackgroundColor=#ffffff;verticalAlign=top;strokeWidth=2;strokeColor=#0080F0;shadow=0;dashed=0;shape=mxgraph.ios7.icons.smartphone;" vertex="1" parent="1">
          <mxGeometry x="40" y="330" width="18" height="30" as="geometry" />
        </mxCell>
        <mxCell id="NNHK_izrKWyzVm5b71PJ-4" value="" style="html=1;verticalLabelPosition=bottom;align=center;labelBackgroundColor=#ffffff;verticalAlign=top;strokeWidth=2;strokeColor=#0080F0;shadow=0;dashed=0;shape=mxgraph.ios7.icons.smartphone;" vertex="1" parent="1">
          <mxGeometry x="40" y="150" width="18" height="30" as="geometry" />
        </mxCell>
        <mxCell id="NNHK_izrKWyzVm5b71PJ-5" value="" style="html=1;verticalLabelPosition=bottom;align=center;labelBackgroundColor=#ffffff;verticalAlign=top;strokeWidth=2;strokeColor=#0080F0;shadow=0;dashed=0;shape=mxgraph.ios7.icons.smartphone;" vertex="1" parent="1">
          <mxGeometry x="40" y="270" width="18" height="30" as="geometry" />
        </mxCell>
        <mxCell id="NNHK_izrKWyzVm5b71PJ-6" value="LB" style="rounded=1;whiteSpace=wrap;html=1;" vertex="1" parent="1">
          <mxGeometry x="100" y="50" width="50" height="430" as="geometry" />
        </mxCell>
        <mxCell id="NNHK_izrKWyzVm5b71PJ-13" value="Web Socket&lt;br&gt;Handler N" style="rounded=1;whiteSpace=wrap;html=1;fillColor=#E6FFCC;" vertex="1" parent="1">
          <mxGeometry x="210" y="350" width="80" height="30" as="geometry" />
        </mxCell>
        <mxCell id="NNHK_izrKWyzVm5b71PJ-14" value="Web Socket&lt;br&gt;Handler 3" style="rounded=1;whiteSpace=wrap;html=1;fillColor=#E6FFCC;" vertex="1" parent="1">
          <mxGeometry x="210" y="280" width="80" height="30" as="geometry" />
        </mxCell>
        <mxCell id="NNHK_izrKWyzVm5b71PJ-15" value="Web Socket&lt;br&gt;Handler 2" style="rounded=1;whiteSpace=wrap;html=1;fillColor=#E6FFCC;" vertex="1" parent="1">
          <mxGeometry x="210" y="200" width="80" height="30" as="geometry" />
        </mxCell>
        <mxCell id="NNHK_izrKWyzVm5b71PJ-16" value="Web Socket&lt;br&gt;Handler 1" style="rounded=1;whiteSpace=wrap;html=1;fillColor=#E6FFCC;" vertex="1" parent="1">
          <mxGeometry x="210" y="120" width="80" height="30" as="geometry" />
        </mxCell>
        <mxCell id="NNHK_izrKWyzVm5b71PJ-17" value="Web Socket&lt;br&gt;Manager" style="rounded=1;whiteSpace=wrap;html=1;fillColor=#CCE5FF;" vertex="1" parent="1">
          <mxGeometry x="385" y="200" width="80" height="50" as="geometry" />
        </mxCell>
        <mxCell id="NNHK_izrKWyzVm5b71PJ-18" value="Message Service" style="rounded=1;whiteSpace=wrap;html=1;fillColor=#CCE5FF;" vertex="1" parent="1">
          <mxGeometry x="420" y="60" width="90" height="50" as="geometry" />
        </mxCell>
        <mxCell id="NNHK_izrKWyzVm5b71PJ-19" value="User Activity&lt;br&gt;Last Seen&lt;br&gt;Service" style="rounded=1;whiteSpace=wrap;html=1;fillColor=#CCE5FF;" vertex="1" parent="1">
          <mxGeometry x="500" y="310" width="90" height="50" as="geometry" />
        </mxCell>
        <mxCell id="NNHK_izrKWyzVm5b71PJ-20" value="Group Service" style="rounded=1;whiteSpace=wrap;html=1;fillColor=#CCE5FF;" vertex="1" parent="1">
          <mxGeometry x="500" y="210" width="90" height="50" as="geometry" />
        </mxCell>
        <mxCell id="NNHK_izrKWyzVm5b71PJ-21" value="User Service" style="rounded=1;whiteSpace=wrap;html=1;fillColor=#CCE5FF;" vertex="1" parent="1">
          <mxGeometry x="380" y="310" width="90" height="50" as="geometry" />
        </mxCell>
        <mxCell id="NNHK_izrKWyzVm5b71PJ-22" value="Asset Service" style="rounded=1;whiteSpace=wrap;html=1;fillColor=#CCE5FF;" vertex="1" parent="1">
          <mxGeometry x="385" y="410" width="90" height="50" as="geometry" />
        </mxCell>
        <mxCell id="NNHK_izrKWyzVm5b71PJ-42" value="KAFKA" style="shape=process;whiteSpace=wrap;html=1;backgroundOutline=1;fillColor=#FF9999;rotation=90;" vertex="1" parent="1">
          <mxGeometry x="597.5" y="242.5" width="120" height="45" as="geometry" />
        </mxCell>
      </root>
    </mxGraphModel>
  </diagram>
</mxfile>
